<svg xmlns="http://www.w3.org/2000/svg" width="14" height="16.333" viewBox="0 0 14 16.333">
  <path id="noun-password-4491883_1_" data-name="noun-password-4491883 (1)" d="M204.945,40.592v-.143a5.444,5.444,0,1,0-10.889,0v.143a2.329,2.329,0,0,0-1.556,2.19V49a2.336,2.336,0,0,0,2.333,2.333h9.333A2.336,2.336,0,0,0,206.5,49V42.782a2.329,2.329,0,0,0-1.556-2.19ZM199.5,36.56a3.894,3.894,0,0,1,3.889,3.889h-7.778A3.894,3.894,0,0,1,199.5,36.56ZM204.945,49a.779.779,0,0,1-.778.778h-9.333a.779.779,0,0,1-.778-.778V42.782a.779.779,0,0,1,.778-.778h9.333a.779.779,0,0,1,.778.778Zm-3.889-3.889a1.549,1.549,0,0,1-.778,1.34v.994a.778.778,0,1,1-1.556,0v-.994a1.553,1.553,0,1,1,2.333-1.34Z" transform="translate(-192.5 -35.004)" opacity="0.3"/>
</svg>
