<svg xmlns="http://www.w3.org/2000/svg" width="14.2" height="15.035" viewBox="0 0 14.2 15.035">
  <path id="Path_12319" data-name="Path 12319" d="M188.158,107.414a7.138,7.138,0,0,0-4.481-6.777h0a4.124,4.124,0,1,0-5.038,0,7.137,7.137,0,0,0-4.481,6.777v.669H175.5v-.669a5.664,5.664,0,0,1,5.618-5.908h.089a5.664,5.664,0,0,1,5.618,5.908v.669h1.338Zm-9.787-10.032a2.787,2.787,0,1,1,2.831,2.787h-.089a2.787,2.787,0,0,1-2.742-2.787Z" transform="translate(-174.058 -93.147)" stroke="#000" stroke-width="0.2" opacity="0.3"/>
</svg>
